<?xml version="1.0" encoding="UTF-8"?>
<svg width="14px" height="24px" viewBox="0 0 14 24" version="1.1" xmlns="http://www.w3.org/2000/svg" xmlns:xlink="http://www.w3.org/1999/xlink">
    <!-- Generator: Sketch 50.2 (55047) - http://www.bohemiancoding.com/sketch -->
    <title>electricity</title>
    <desc>Created with Sketch.</desc>
    <defs></defs>
    <g id="Page-1" stroke="none" stroke-width="1" fill="none" fill-rule="evenodd">
        <g id="Akut_overlay" transform="translate(-178.000000, -188.000000)" fill="#FFEB00" fill-rule="nonzero">
            <g transform="translate(24.000000, 102.000000)" id="akut_icons">
                <g transform="translate(121.000000, 85.000000)">
                    <path d="M33.4115205,25 C33.3378148,25 33.2636973,24.9808 33.1969916,24.9412 C33.0236391,24.838 32.9536393,24.6268 33.0322862,24.4448 L37.6460974,13.8 L33.4119322,13.8 C33.2690503,13.8 33.1368741,13.728 33.0615214,13.61 C32.9865804,13.492 32.9795804,13.3448 33.0434038,13.2212 L39.2198579,1.2212 C39.2898577,1.0856 39.4323279,1 39.5883863,1 L46.176604,1 C46.326486,1 46.4648386,1.0792 46.537309,1.2072 C46.6097794,1.3348 46.6048382,1.4908 46.5245443,1.614 L41.7089689,9 L46.5883676,9 C46.7485437,9 46.8938962,9.0904 46.9614255,9.2312 C47.0289547,9.3724 47.0067195,9.5388 46.9033668,9.658 L33.7269314,24.858 C33.6462257,24.9508 33.5296966,25 33.4115205,25" id="electricity"></path>
                </g>
            </g>
        </g>
    </g>
</svg>