<?xml version="1.0" encoding="UTF-8"?>
<svg width="22px" height="24px" viewBox="0 0 22 24" version="1.1" xmlns="http://www.w3.org/2000/svg" xmlns:xlink="http://www.w3.org/1999/xlink">
    <!-- Generator: Sketch 50.2 (55047) - http://www.bohemiancoding.com/sketch -->
    <title>pest</title>
    <desc>Created with Sketch.</desc>
    <defs></defs>
    <g id="Page-1" stroke="none" stroke-width="1" fill="none" fill-rule="evenodd">
        <g id="Akut_overlay" transform="translate(-209.000000, -188.000000)" fill="#EE7F00" fill-rule="nonzero">
            <g transform="translate(24.000000, 102.000000)" id="akut_icons">
                <g transform="translate(121.000000, 85.000000)">
                    <path d="M64.9660673,5.70485386 C64.7482703,5.88370486 66.5019116,8.10145724 66.6100591,8.23078027 C68.1083522,10.0220418 69.5916248,10.0835766 69.775125,10.3509776 C69.9598769,10.6168777 70.8438323,11.5058797 72.4154754,11.7670272 C72.4214836,12.1752578 72.4442646,12.5612257 72.4860717,12.9276827 C71.519754,12.6617825 70.4317704,12.4336537 69.8231905,12.4351545 C69.1815656,12.4334035 67.0083522,13.0402462 66.6193217,13.2218488 C66.4826353,13.2863852 64,13.2235998 64,13.4935022 C64,13.7671567 66.472121,13.8677135 66.5742603,13.7293854 C67.4712334,13.8719659 70.0124486,13.4079539 70.2830676,13.4557308 C70.5534363,13.5070098 72.6347744,14.1118514 72.6497949,14.1153533 C72.8062583,14.8330086 73.0330675,15.22498 73.3019342,15.7042506 C72.2680243,15.6739835 70.4119934,16.696561 69.3765815,17.7313954 C68.5169093,18.5903804 67.0847063,19.9791647 66.8684114,20.2855877 C66.0598088,21.4269823 66.4220527,24.9962479 66.8696631,24.9962479 C67.2213927,24.9962479 66.379745,21.8006933 67.1883476,20.6592988 C67.4214155,20.3306132 70.0257167,18.5541099 70.3291304,18.2056632 C70.6325442,17.8572164 72.2467453,17.358935 72.9229173,16.8544001 C72.2419888,17.2941484 71.7761035,17.9820369 71.7761035,18.927821 C71.7761035,22.4415552 73.6111058,23.857855 74.9889846,23.8743643 C74.9889846,23.8743643 74.9904867,23.8783666 74.9934908,23.8788669 C74.9964949,23.8788669 74.999499,23.8783666 75.0027534,23.8788669 C75.0057575,23.8788669 75.0087616,23.8788669 75.0117657,23.8783666 C75.0150201,23.8783666 75.0177739,23.8788669 75.020778,23.8783666 C76.3976555,23.8608567 78.2233951,22.4415552 78.2233951,18.9340745 C78.2246468,18.0528269 77.8175917,17.3902027 77.213518,16.9489535 C77.9485203,17.4189689 79.3892348,17.8797291 79.6748743,18.2069139 C79.9800405,18.5538598 82.5723253,20.3301129 82.8066448,20.6605495 C83.6167495,21.8004432 82.7768542,25.0005003 83.1318383,25 C83.5761942,25.0005003 83.9401906,21.4297338 83.1313376,20.2883393 C82.9137909,19.9834171 81.4825894,18.5958835 80.6234178,17.7371486 C79.5862535,16.7008134 77.7332267,15.6784861 76.6978148,15.7100039 C76.9669318,15.2307332 77.192239,14.8287562 77.3502044,14.1090998 C77.3634725,14.1080992 79.4448106,13.5120126 79.7166814,13.4622345 C79.9885521,13.4124564 82.5285156,13.8784696 83.4272411,13.7338879 C83.5273776,13.8737169 86.0015014,13.7714091 85.9999993,13.4997557 C86.0015014,13.2278522 83.5113558,13.2861351 83.3744191,13.2215986 C82.9866403,13.0382451 80.8244419,12.4334035 80.1810646,12.4334035 C79.5722344,12.4349044 78.4754889,12.6632833 77.5089208,12.9259317 C77.5509782,12.5624764 77.5827715,12.1767586 77.5885294,11.7685281 C79.1604228,11.5041288 80.0453796,10.6168777 80.2273777,10.3509776 C80.4121297,10.0850774 81.8956526,10.0232925 83.3936953,8.22927942 C83.5008415,8.10145724 85.2557344,5.88220401 85.0361851,5.705104 C84.7795852,5.49648619 83.1713922,7.56565467 83.1068041,7.74750736 C82.6712102,7.96362941 80.5998857,9.34215788 80.3505457,9.44121381 C80.0997036,9.5387689 78.8372321,9.98927331 77.4954024,10.792727 C77.2896218,10.0072835 76.7709145,9.47423246 76.1367998,9.19207312 C77.0129946,9.19057227 77.6501134,9.01922551 77.6501134,8.05543125 C77.6501134,7.00133599 77.4473369,6.02978735 77.1058712,5.25059734 C78.0393942,4.76557344 78.7160669,4.24603005 78.9188434,4.17223838 C79.1213696,4.09569515 79.1994761,3.81653751 78.8147014,3.11063888 C78.1805867,1.95123416 77.4941507,0.946666868 77.3449472,1.00219823 C77.1962445,1.06098142 77.8906914,3.31925669 78.4857528,3.80578144 C77.7807916,3.93035178 77.3181607,4.15873075 76.7306095,4.56546043 C76.267478,3.86581534 75.6724166,3.44532788 75.0157712,3.43482195 C75.0142691,3.4333211 75.0125167,3.42881856 75.0110147,3.43031941 C75.0052568,3.43031941 74.9977466,3.42881856 74.9917384,3.42856842 C74.3335909,3.43782365 73.7265131,3.86406435 73.2648836,4.56546043 C72.6758304,4.15998146 72.2162037,3.9255991 71.5127444,3.7995279 C72.1078058,3.316255 72.8065086,1.05923043 72.6575555,1.00369907 C72.5091031,0.947917574 71.8176602,1.94498062 71.1832952,3.10413521 C70.7972688,3.81153468 70.8813835,4.09669572 71.08416,4.17023725 C71.2884386,4.24527962 71.9648609,4.76482301 72.8978832,5.24984691 C72.5554162,6.02753608 72.3523894,7.00208642 72.3523894,8.05643182 C72.3523894,9.01722438 72.9897585,9.19157284 73.8644512,9.19157284 C73.2318386,9.47523303 72.7133816,10.008284 72.5073507,10.7907259 C71.1655209,9.98752232 69.8972916,9.54302131 69.6477012,9.44371523 C69.3968592,9.34616014 67.3272871,7.95712574 66.8916931,7.74100369 C66.8296085,7.56090199 65.22467,5.49498534 64.9660673,5.70485386 Z" id="pest"></path>
                </g>
            </g>
        </g>
    </g>
</svg>