<svg width="38" height="33" viewBox="0 0 38 33" xmlns="http://www.w3.org/2000/svg" xmlns:xlink="http://www.w3.org/1999/xlink">
  <defs>
    <path d="M18.8 11H7.61l4.88-4.88a1 1 0 0 0 0-1.42 1 1 0 0 0-1.4 0l-6.6 6.6a1 1 0 0 0 0 1.4l6.6 6.6a1 1 0 1 0 1.4-1.42L7.62 13H18.8a1 1 0 0 0 1-1 1 1 0 0 0-1-1z" id="a"/>
  </defs>
  <g fill="none" fill-rule="evenodd">
    <text font-family="ArialMT, Arial" font-size="11" letter-spacing=".08" fill="#141414" transform="translate(-7 -4)">
      <tspan x="6.52" y="36">Fortsätt</tspan>
    </text>
    <g transform="rotate(-180 15.5 10)">
      <mask id="b" fill="#fff">
        <use xlink:href="#a"/>
      </mask>
      <use fill="#000" fill-rule="nonzero" xlink:href="#a"/>
      <g mask="url(#b)" fill="#000" fill-opacity=".54">
        <path d="M0 0h24v24H0z"/>
      </g>
    </g>
  </g>
</svg>
