<?xml version="1.0" encoding="UTF-8"?>
<svg width="48px" height="48px" viewBox="0 0 48 48" version="1.1" xmlns="http://www.w3.org/2000/svg" xmlns:xlink="http://www.w3.org/1999/xlink">
    <!-- Generator: Sketch 50.2 (55047) - http://www.bohemiancoding.com/sketch -->
    <title>Group 2</title>
    <desc>Created with Sketch.</desc>
    <defs>
        <circle id="path-1" cx="20" cy="20" r="20"></circle>
        <filter x="-17.5%" y="-12.5%" width="135.0%" height="135.0%" filterUnits="objectBoundingBox" id="filter-2">
            <feOffset dx="0" dy="2" in="SourceAlpha" result="shadowOffsetOuter1"></feOffset>
            <feGaussianBlur stdDeviation="2" in="shadowOffsetOuter1" result="shadowBlurOuter1"></feGaussianBlur>
            <feColorMatrix values="0 0 0 0 0   0 0 0 0 0   0 0 0 0 0  0 0 0 0.32 0" type="matrix" in="shadowBlurOuter1"></feColorMatrix>
        </filter>
    </defs>
    <g id="Page-1" stroke="none" stroke-width="1" fill="none" fill-rule="evenodd">
        <g id="Artboard" transform="translate(-8.000000, -8.000000)">
            <g id="Group-2" transform="translate(12.000000, 10.000000)">
                <g id="Oval-9">
                    <use fill="black" fill-opacity="1" filter="url(#filter-2)" xlink:href="#path-1"></use>
                    <use fill="#FFFFFF" fill-rule="evenodd" xlink:href="#path-1"></use>
                </g>
                <g id="Group" transform="translate(20.000000, 20.000000) rotate(-315.000000) translate(-20.000000, -20.000000) translate(10.000000, 10.000000)" fill="#141414">
                    <polygon id="Fill-1" points="7.988 0 7.988 3.008 5 3.008 9.982 7.984 15.004 3.008 11.976 3 11.976 0"></polygon>
                    <polygon id="Fill-2" points="5 16.976 8.028 16.985 8.028 19.984 12.016 19.984 12.016 16.976 15.004 16.976 10.021 12"></polygon>
                    <polygon id="Fill-3" points="12 9.983 16.976 15.004 16.985 11.976 19.984 11.976 19.984 7.988 16.976 7.988 16.976 5"></polygon>
                    <polygon id="Fill-4" points="2.999 8.029 0 8.029 0 12.017 3.008 12.017 3.008 15.005 7.984 10.022 3.008 5"></polygon>
                </g>
            </g>
        </g>
    </g>
</svg>