<?xml version="1.0" encoding="UTF-8"?>
<svg width="20px" height="16px" viewBox="0 0 20 16" version="1.1" xmlns="http://www.w3.org/2000/svg" xmlns:xlink="http://www.w3.org/1999/xlink">
    <!-- Generator: Sketch 50.2 (55047) - http://www.bohemiancoding.com/sketch -->
    <title>epost_icon</title>
    <desc>Created with Sketch.</desc>
    <defs>
        <path d="M22,6 C22,4.9 21.1,4 20,4 L4,4 C2.9,4 2,4.9 2,6 L2,18 C2,19.1 2.9,20 4,20 L20,20 C21.1,20 22,19.1 22,18 L22,6 Z M20,6 L12,11 L4,6 L20,6 Z M20,18 L4,18 L4,8 L12,13 L20,8 L20,18 Z" id="path-1"></path>
    </defs>
    <g id="Page-1" stroke="none" stroke-width="1" fill="none" fill-rule="evenodd">
        <g id="Beskriv_arende" transform="translate(-40.000000, -396.000000)">
            <g id="Info_boxes" transform="translate(32.000000, 272.000000)">
                <g id="Epost_box" transform="translate(0.000000, 112.000000)">
                    <g id="icon/communication/email_24px" transform="translate(6.000000, 8.000000)">
                        <mask id="mask-2" fill="white">
                            <use xlink:href="#path-1"></use>
                        </mask>
                        <g fill-rule="nonzero"></g>
                        <g id="✱-/-Color-/-Icons-/-Primary-or-Secondary" mask="url(#mask-2)" fill="#00A388" fill-rule="evenodd">
                            <g id="✱-/-Color-/-Primary-/-Main">
                                <g id="✱-/-Color-/-Primary-/-400">
                                    <rect id="Rectangle-13" x="0" y="0" width="24" height="24"></rect>
                                </g>
                            </g>
                        </g>
                    </g>
                </g>
            </g>
        </g>
    </g>
</svg>