<svg width="32" height="32" viewBox="0 0 32 32" xmlns="http://www.w3.org/2000/svg" xmlns:xlink="http://www.w3.org/1999/xlink">
  <defs>
    <path id="a" d="M0 0h756.22v589.62H0z"/>
  </defs>
  <g fill="none" fill-rule="evenodd">
    <mask id="b" fill="#fff">
      <use xlink:href="#a"/>
    </mask>
    <path d="M9.9 10.76a4.14 4.14 0 0 1 3.97 4.2 4.07 4.07 0 0 1-3.91 4.02 4.06 4.06 0 0 1-4.07-4.17 4.02 4.02 0 0 1 4.01-4.05M9.85 22.3c2.18 0 3.6-.63 4.39-2.04v1.73h3.44V7.88H14.2v1.7c-.92-1.4-2.39-2.08-4.44-2.08-2.13 0-3.8.69-5.23 2.18a7.4 7.4 0 0 0-2.02 5.18c0 4.2 3.13 7.43 7.33 7.43m20.87-7.24l-2.78-2.74c.57.72.92 1.64.92 2.66A4.07 4.07 0 0 1 24.95 19a4.03 4.03 0 0 1-3.14-1.47v8.3H0l3.14 3.13h21.8v-8.28l.28.29a4.04 4.04 0 0 0 2.87 1.17A4.07 4.07 0 0 0 32 18.1c0-1.22-.5-2.3-1.28-3.06m-5.82-4.28h.05V7.14L21.8 4v8.22a4.02 4.02 0 0 1 3.09-1.45" fill="#6EC81E" mask="url(#b)"/>
  </g>
</svg>
