<svg width="319" height="131" xmlns="http://www.w3.org/2000/svg" xmlns:xlink="http://www.w3.org/1999/xlink">
  <defs>
    <path d="M10 4h299a4 4 0 0 1 4 4v92a4 4 0 0 1-4 4H176.8a4 4 0 0 0-3.4 1.7L162.6 122l-11.3-16.2a4 4 0 0 0-3.3-1.7H10a4 4 0 0 1-4-4V8a4 4 0 0 1 4-4z" id="b"/>
    <filter x="-2.9%" y="-5.9%" width="105.9%" height="115.3%" filterUnits="objectBoundingBox" id="a">
      <feMorphology radius="2" operator="dilate" in="SourceAlpha" result="shadowSpreadOuter1"/>
      <feOffset dy="2" in="shadowSpreadOuter1" result="shadowOffsetOuter1"/>
      <feGaussianBlur stdDeviation="2" in="shadowOffsetOuter1" result="shadowBlurOuter1"/>
      <feComposite in="shadowBlurOuter1" in2="SourceAlpha" operator="out" result="shadowBlurOuter1"/>
      <feColorMatrix values="0 0 0 0 0 0 0 0 0 0 0 0 0 0 0 0 0 0 0.287250906 0" in="shadowBlurOuter1"/>
    </filter>
  </defs>

  <g fill="none" fill-rule="evenodd"><use fill="#000" filter="url(#a)" xlink:href="#b"/><path stroke="#FFF" stroke-width="2" d="M10 3h299a5 5 0 0 1 5 5v92a5 5 0 0 1-5 5H176.8a3 3 0 0 0-2.5 1.3l-11.7 17.3-12.1-17.3a3 3 0 0 0-2.5-1.3H10a5 5 0 0 1-5-5V8a5 5 0 0 1 5-5z" fill="#00A388"/>
  </g>
</svg>
