<?xml version="1.0" encoding="UTF-8"?>
<svg width="80px" height="80px" viewBox="0 0 80 80" version="1.1" xmlns="http://www.w3.org/2000/svg" xmlns:xlink="http://www.w3.org/1999/xlink">
    <!-- Generator: Sketch 50.2 (55047) - http://www.bohemiancoding.com/sketch -->
    <title>questionmark_large</title>
    <desc>Created with Sketch.</desc>
    <defs>
        <path d="M44,72 L52,72 L52,64 L44,64 L44,72 Z M48,8 C25.92,8 8,25.92 8,48 C8,70.08 25.92,88 48,88 C70.08,88 88,70.08 88,48 C88,25.92 70.08,8 48,8 Z M48,80 C30.36,80 16,65.64 16,48 C16,30.36 30.36,16 48,16 C65.64,16 80,30.36 80,48 C80,65.64 65.64,80 48,80 Z M48,24 C39.16,24 32,31.16 32,40 L40,40 C40,35.6 43.6,32 48,32 C52.4,32 56,35.6 56,40 C56,48 44,47 44,60 L52,60 C52,51 64,50 64,40 C64,31.16 56.84,24 48,24 Z" id="path-1"></path>
    </defs>
    <g id="Page-1" stroke="none" stroke-width="1" fill="none" fill-rule="evenodd">
        <g id="GDPR_overlay" transform="translate(-148.000000, -103.000000)">
            <g id="Group" transform="translate(24.000000, 79.000000)">
                <g id="icon/action/help_outline_24px" transform="translate(116.000000, 16.000000)">
                    <mask id="mask-2" fill="white">
                        <use xlink:href="#path-1"></use>
                    </mask>
                    <g fill-rule="nonzero"></g>
                    <g id="✱-/-Color-/-Icons-/-Primary-or-Secondary" mask="url(#mask-2)" fill="#00A388" fill-rule="evenodd">
                        <g id="✱-/-Color-/-Primary-/-Main">
                            <g id="✱-/-Color-/-Primary-/-400">
                                <rect id="Rectangle-13" x="0" y="0" width="96" height="96"></rect>
                            </g>
                        </g>
                    </g>
                </g>
            </g>
        </g>
    </g>
</svg>