<?xml version="1.0" encoding="UTF-8"?>
<svg width="12px" height="12px" viewBox="0 0 12 12" version="1.1" xmlns="http://www.w3.org/2000/svg" xmlns:xlink="http://www.w3.org/1999/xlink">
    <!-- Generator: Sketch 50.2 (55047) - http://www.bohemiancoding.com/sketch -->
    <title>telephone_icon</title>
    <desc>Created with Sketch.</desc>
    <defs>
        <path d="M4.36,3.33333333 C4.4,3.92666667 4.5,4.50666667 4.66,5.06 L3.86,5.86 C3.58666667,5.06 3.41333333,4.21333333 3.35333333,3.33333333 L4.36,3.33333333 Z M10.9333333,11.3466667 C11.5,11.5066667 12.08,11.6066667 12.6666667,11.6466667 L12.6666667,12.64 C11.7866667,12.58 10.94,12.4066667 10.1333333,12.14 L10.9333333,11.3466667 Z M5,2 L2.66666667,2 C2.3,2 2,2.3 2,2.66666667 C2,8.92666667 7.07333333,14 13.3333333,14 C13.7,14 14,13.7 14,13.3333333 L14,11.0066667 C14,10.64 13.7,10.34 13.3333333,10.34 C12.5066667,10.34 11.7,10.2066667 10.9533333,9.96 C10.8866667,9.93333333 10.8133333,9.92666667 10.7466667,9.92666667 C10.5733333,9.92666667 10.4066667,9.99333333 10.2733333,10.12 L8.80666667,11.5866667 C6.92,10.62 5.37333333,9.08 4.41333333,7.19333333 L5.88,5.72666667 C6.06666667,5.54 6.12,5.28 6.04666667,5.04666667 C5.8,4.3 5.66666667,3.5 5.66666667,2.66666667 C5.66666667,2.3 5.36666667,2 5,2 Z" id="path-1"></path>
    </defs>
    <g id="Page-1" stroke="none" stroke-width="1" fill="none" fill-rule="evenodd">
        <g id="Akut_overlay-Copy" transform="translate(-96.000000, -211.000000)">
            <g id="list_items" transform="translate(94.000000, 133.000000)">
                <g id="boras" transform="translate(0.000000, 56.000000)">
                    <g id="icon/communication/call_24px" transform="translate(0.000000, 20.000000)">
                        <mask id="mask-2" fill="white">
                            <use xlink:href="#path-1"></use>
                        </mask>
                        <g fill-rule="nonzero"></g>
                        <g id="✱-/-Color-/-Icons-/-Primary-or-Secondary" mask="url(#mask-2)" fill="#00A388" fill-rule="evenodd">
                            <g id="✱-/-Color-/-Primary-/-Main">
                                <g id="✱-/-Color-/-Primary-/-400">
                                    <rect id="Rectangle-13" x="0" y="0" width="16" height="16"></rect>
                                </g>
                            </g>
                        </g>
                    </g>
                </g>
            </g>
        </g>
    </g>
</svg>